PathFileType	4	(X/Y/Z)	C:/Users/beibeiliu/ov580/test_trc/User2\sequence.20_training_dense_right.trc
DataRate	CameraRate	NumFrames	NumMarkers	Units	OrigDataRate	OrigDataStartFrame	OrigNumFrames
120	120	20	19	mm	120	1	92
Frame#	Time	ThumbCMC			ThumbMCP			ThumbIP			ThumbTip			IndexMCP			IndexPIP			IndexTip			MiddleMCP			MiddlePIP			MiddleTip			RingMCP			RingPIP			RingTip			PinkyMCP			PinkyPIP			PinkyTip			BackHand1			BackHand2			BackHand3	
		X0	Y0	Z0	X1	Y1	Z1	X2	Y2	Z2	X3	Y3	Z3	X4	Y4	Z4	X5	Y5	Z5	X6	Y6	Z6	X7	Y7	Z7	X8	Y8	Z8	X9	Y9	Z9	X10	Y10	Z10	X11	Y11	Z11	X12	Y12	Z12	X13	Y13	Z13	X14	Y14	Z14	X15	Y15	Z15	X16	Y16	Z16	X17	Y17	Z17	X18	Y18	Z18	
0	0	66.4244	25.2571	-16.6086	38.1222	36.0692	-34.6662	18.0559	38.6245	-63.7567	3.72286	37.5505	-82.9163	74.9884	36.4583	-100.065	67.4824	40.5676	-129.487	61.049	46.7289	-151.442	103.96	27.5544	-109.601	99.9055	32.0892	-139.029	104.311	36.3197	-169.959	122.627	12.465	-104.745	126.727	15.4346	-131.05	133.296	20.436	-158.91	137.216	-8.92001	-89.328	148.792	-10.5481	-111.908	161.07	-8.11232	-129.462	125.447	13.6235	-51.7234	131.108	20.3277	-18.2218	98.5689	34.4807	-32.299	
1	0.00833333	54.0944	16.5024	-19.2323	30.6804	19.1443	-32.3426	8.43546	20.4858	-63.4456	-9.68164	17.8651	-78.6185	62.6442	25.6838	-98.6072	52.9129	30.2457	-126.596	50.0334	32.5702	-153.98	89.4154	22.9056	-106.574	87.2371	26.5843	-141.236	91.1013	31.1638	-170.057	111.878	12.1099	-104.98	121.075	11.4909	-126.521	121.132	18.9441	-157.437	130.781	-8.03875	-86.6225	143.764	-7.05862	-111.266	151.559	-2.32873	-133.491	116.103	12.2604	-49.5211	120.845	19.3043	-16.6221	86.0136	30.2328	-33.5564	
2	0.0166667	45.643	6.61906	-12.5309	22.6312	6.50482	-33.5715	-0.960053	5.31244	-61.1649	-14.185	-0.0516183	-79.3525	53.7964	13.8263	-98.1742	43.0116	15.5231	-122.014	40.8436	16.322	-150.258	80.0358	13.8197	-110.759	77.356	15.1822	-140.053	80.8832	18.0904	-171.373	106.698	3.77309	-102.581	108.921	4.5786	-125.705	112.549	8.29428	-155.949	125.159	-10.7614	-85.886	136.406	-12.5391	-107.696	143.695	-7.29121	-128.464	109.071	7.59416	-49.4403	115.097	16.1057	-18.6432	78.6773	22.9568	-31.504	
3	0.025	37.9052	-2.08798	-14.8534	13.875	-4.02411	-30.0043	-6.82432	-9.42754	-61.6125	-23.179	-16.6285	-78.175	44.2352	-0.889362	-95.9106	34.0063	-2.62601	-126.055	32.7198	-4.38037	-151.883	76.5305	-1.82427	-109.286	73.1854	-3.75066	-141.831	74.6664	-4.90069	-170.537	98.1515	-8.33853	-104.199	103.222	-9.94239	-129.522	103.475	-9.96903	-156.949	118.488	-22.1562	-83.8043	128.083	-25.0255	-105.008	139.292	-20.2209	-130.786	99.6142	0.995773	-49.7646	106.503	8.32606	-16.4411	67.0615	13.0982	-35.5096	
4	0.0333333	32.2343	-8.78081	-15.6686	10.2804	-13.6467	-30.3343	-12.1351	-21.1754	-58.3514	-27.8518	-30.6978	-75.9593	38.3628	-17.8346	-99.0643	27.0404	-21.722	-121.334	24.5819	-28.3197	-148.896	65.7179	-19.1788	-105.208	63.5748	-27.261	-140.473	63.6154	-31.0448	-167.379	91.1372	-27.774	-98.6459	93.6487	-32.1342	-129.096	96.9489	-34.4377	-156.96	113.573	-38.854	-79.2196	123.474	-42.2118	-107.135	132.768	-43.2702	-129.609	95.0295	-10.8593	-47.0345	104.714	1.62359	-18.9063	67.6225	3.09448	-33.5634	
5	0.0416667	31.0699	-11.1767	-15.8288	10.1225	-16.5194	-29.5095	-12.9901	-24.8167	-51.3721	-30.5677	-33.5408	-68.1181	30.5962	-29.0143	-94.304	23.6328	-37.7605	-120.838	9.88313	-44.0962	-145.711	62.7105	-34.5423	-103.823	59.4521	-45.4764	-134.01	54.8467	-53.7812	-161.461	84.7347	-43.1905	-100.029	90.1784	-51.5662	-122.77	86.888	-58.9065	-149.469	109.965	-53.4087	-79.6113	114.511	-60.6726	-100.622	127.461	-65.3918	-126.706	95.7096	-22.5543	-49.7823	100.185	-6.18883	-22.9918	65.1899	-3.85662	-38.4441	
6	0.05	35.2946	-0.968861	-13.9824	8.96419	1.33873	-26.6513	-17.6077	-5.60243	-51.1765	-36.3596	-12.7708	-62.2543	26.8553	-26.5056	-91.3112	11.3401	-34.0005	-115.007	4.73342	-46.0841	-138.975	52.9744	-37.6922	-101.4	46.3594	-52.2369	-128.222	41.235	-64.8659	-156.16	80.266	-52.1377	-96.0485	79.8007	-64.0516	-117.782	76.2811	-74.9404	-142.917	97.2221	-61.9879	-73.2675	105.743	-77.3275	-96.2723	111.943	-86.462	-120.716	91.0229	-22.7493	-47.0011	100.166	-6.65812	-22.1308	65.0285	-0.516158	-38.0191	
7	0.0583333	45.5045	23.9179	-9.77321	19.5488	31.6771	-25.8561	-8.42877	29.5098	-47.4975	-29.9856	27.0117	-60.5709	22.7897	-7.19174	-87.7862	6.30214	-17.7959	-111.075	-8.62231	-25.7396	-133.284	44.8165	-31.696	-97.6685	31.3803	-45.0255	-122.057	22.3175	-61.1417	-150.214	66.1451	-51.7592	-90.2982	61.2047	-65.6113	-111.073	50.7035	-74.3202	-133.808	81.4973	-62.1928	-65.8749	80.5001	-79.1558	-85.3923	85.8475	-94.0854	-108.019	87.0912	-20.9257	-49.4376	105.456	-4.71689	-21.5164	71.4324	13.0336	-36.1793	
8	0.0666667	61.2337	42.9371	-14.0663	40.5584	62.044	-25.2816	13.7779	66.5843	-44.4783	-8.99116	71.5563	-56.2043	26.1056	15.6577	-85.0014	7.35322	13.4115	-104.898	-8.24087	6.54435	-123.026	39.5646	-13.4894	-91.294	18.2985	-25.4655	-115.749	4.62676	-34.7524	-134.651	52.1949	-34.1332	-80.9975	39.5959	-48.1553	-99.8318	25.5978	-61.3439	-125.202	64.2519	-53.7652	-59.7012	54.0628	-70.3476	-77.8625	53.2229	-88.1948	-92.5751	87.1877	-16.8183	-44.7358	107.905	-6.40579	-22.1374	83.4436	21.4881	-34.5059	
9	0.075	83.8786	61.1246	-11.2509	65.0988	82.3706	-26.4055	41.7976	96.0079	-45.3993	21.2365	106.584	-58.6823	36.2435	37.8954	-83.1074	17.6939	44.0033	-98.6378	-4.23368	40.7617	-120.681	36.4851	10.5169	-89.6129	12.8779	2.18365	-109.539	-4.72543	-3.053	-128.237	43.2603	-16.4326	-75.4948	25.177	-24.6146	-92.6817	6.32925	-33.0806	-114.506	48.9529	-38.832	-52.6242	32.7523	-50.8023	-68.2684	23.0067	-63.6658	-85.6055	83.533	-2.98173	-38.4907	106.816	-3.88241	-20.2818	95.7692	28.0795	-34.3793	
10	0.0833333	98.1302	65.5875	-16.0905	88.4265	93.9431	-32.4152	68.3022	114.472	-50.5102	50.9269	127.136	-62.6222	48.9698	57.9167	-80.538	26.7711	67.3003	-101.49	8.49853	65.6201	-118.347	36.7179	27.8379	-85.9129	13.885	25.8249	-103.391	-9.49836	25.953	-123.084	32.8768	1.29487	-74.0804	14.6706	-1.64266	-88.1129	-6.58382	-4.04135	-107.623	34.3818	-19.4407	-47.0559	14.6145	-25.9006	-60.9484	-2.04846	-38.6237	-78.2336	82.0602	4.89316	-36.3893	107.479	-0.694565	-17.9701	100.462	33.1405	-33.471	
11	0.0916667	112.847	67.8232	-16.2921	105.022	91.3006	-34.7064	88.8915	117.826	-59.1773	78.915	137.173	-70.8287	57.4103	70.7752	-84.3638	38.6055	79.6193	-103.307	19.9698	87.1325	-122.528	42.397	43.8698	-84.4888	15.385	47.0201	-104.368	-6.04034	53.0442	-123.681	29.6337	18.8732	-72.401	9.07031	19.0437	-84.7945	-13.8709	23.236	-105.704	24.7308	2.29959	-48.7536	1.74142	-4.78778	-57.65	-16.8894	-12.4711	-68.8458	74.4907	9.70385	-39.597	101.064	1.48536	-18.3832	102.799	38.0162	-39.0622	
12	0.1	124.469	63.9149	-23.6506	120.555	86.9504	-42.2003	111.54	112.228	-62.8438	104.817	131.671	-76.8554	67.9814	73.8121	-91.5845	51.5796	84.4977	-108.107	39.5611	95.7183	-125.397	44.7591	51.7577	-90.937	18.4159	58.5357	-107.492	-1.1329	66.7556	-125.217	29.0424	31.8828	-73.7277	6.01524	34.2596	-86.5325	-11.3008	43.1987	-106.517	20.7275	14.8963	-45.7991	-1.3273	16.9635	-55.1866	-22.5691	14.0027	-66.9137	74.7479	12.8456	-40.6785	95.7055	1.41093	-18.4688	109.062	31.189	-40.7254	
13	0.108333	128.724	51.5574	-31.6072	134.865	75.4193	-51.4991	129.672	98.276	-74.8427	128.162	118.526	-88.2995	77.2097	64.2436	-95.427	64.7275	77.9365	-116.8	52.4009	91.0906	-140.195	50.3885	46.5567	-91.0224	30.1583	59.6668	-111.12	8.02825	71.2864	-134.065	29.516	36.214	-75.5506	15.4987	46.163	-90.3966	-4.44559	51.6343	-106.558	22.8796	25.2926	-43.6673	-2.32015	31.9752	-55.4754	-18.2977	33.282	-67.1558	74.8447	12.1253	-38.8343	91.0117	-1.67777	-19.6275	111.24	22.2463	-44.2959	
14	0.116667	138.834	37.7464	-38.5902	151.635	57.0421	-59.5357	148.952	77.893	-86.2592	148.117	97.0519	-107.429	90.4852	50.0423	-108.467	78.7821	62.0973	-130.228	72.013	72.3046	-151.843	62.2211	40.2498	-101.21	42.1398	49.8844	-120.26	24.5121	60.8281	-146.183	37.262	33.5386	-80.2688	20.3433	42.6603	-99.429	4.39404	50.3163	-120.323	29.1075	30.5766	-50.2306	6.53842	36.1736	-58.748	-14.5184	38.9365	-75.4112	72.8158	7.60668	-40.6457	92.5001	-6.76963	-19.3622	111.099	12.7028	-48.5729	
15	0.125	148.938	24.5604	-44.5388	159.863	40.5942	-65.7295	165.687	57.4845	-94.6669	166.651	72.7494	-114.461	105.349	28.9798	-115.926	97.7965	38.3436	-142.321	90.981	44.8744	-165.813	73.057	23.0743	-111.662	59.0163	31.9047	-137.84	44.3241	37.4083	-160.658	52.1018	22.2973	-93.5957	33.4324	26.7317	-106.591	17.7192	32.6849	-132.003	37.674	23.9342	-60.9163	17.013	30.747	-72.5138	-1.87649	31.6169	-88.8251	78.8049	-1.43984	-44.4112	92.0066	-13.5175	-21.6645	119.287	-0.112471	-48.2855	
16	0.133333	153.944	17.6487	-45.662	169.974	31.3265	-71.1339	172.451	45.457	-102.8	178.804	59.2847	-122.935	117.538	12.261	-122.075	113.508	17.3214	-148.099	101.797	20.2731	-175.018	88.0307	4.75226	-116.05	73.7317	10.5146	-143.654	55.1591	12.7876	-167.894	65.7614	5.85013	-97.577	46.66	9.37455	-120.786	32.5729	11.144	-145.725	48.7162	11.1314	-68.5513	26.4378	16.8009	-87.8843	8.32906	15.1002	-103.542	89.9224	-10.4228	-49.6662	101.392	-20.7075	-21.6541	127.634	-8.68811	-49.5769	
17	0.141667	162.184	19.5517	-49.936	171.292	34.1709	-74.9354	181.699	48.3158	-102.352	185.294	60.1359	-122.336	125.712	5.50932	-125.111	121.553	7.92013	-151.514	114.493	10.2204	-176.803	95.6207	-4.16337	-122.318	82.5928	-2.47725	-151.296	71.8769	-2.56485	-177.726	75.5944	-4.97798	-106.978	55.4203	-5.05205	-128.254	47.0979	-4.58451	-151.928	56.525	-0.51943	-80.4589	34.9353	0.813123	-96.1116	17.8457	-5.22171	-107.72	98.2836	-16.0824	-53.8948	111.488	-23.3072	-23.3223	139.457	-8.8848	-53.1166	
18	0.15	166.396	33.413	-44.5695	172.09	49.423	-72.014	180.027	66.9614	-98.0561	182.233	79.8835	-120.632	139.152	14.128	-123.563	133.811	14.5086	-149.831	124.948	13.7311	-180.158	111.73	-4.17173	-126.722	97.7531	-5.75344	-150.06	83.6268	-9.85652	-180.469	86.6471	-12.9006	-105.826	74.6958	-14.9083	-129.65	62.5086	-16.8451	-158.084	69.7321	-11.2676	-82.4532	48.7265	-15.7659	-103.588	34.5307	-22.7705	-115.126	113.644	-15.0571	-59.6166	124.262	-18.2946	-28.2485	146.739	-2.80301	-53.5865	
19	0.158333	157.239	49.9558	-41.8919	158.204	67.5321	-65.3638	160.639	87.5802	-88.8239	160.654	104.186	-111.137	141.547	30.0056	-118.763	139.167	32.3585	-148.336	135.068	34.6545	-174.836	119.58	0.420528	-125.63	110.414	-0.338873	-153.944	101.713	-4.80788	-184.072	101.638	-14.5501	-113.54	93.5353	-17.2682	-136.779	82.3801	-22.2753	-165.304	84.9516	-19.0553	-86.9733	68.1313	-29.5444	-106.564	59.0045	-40.9596	-128.702	125.412	-11.3355	-62.7487	134.313	-16.1023	-31.5891	152.2	10.1797	-49.5151	
